<svg width="390" height="844" viewBox="0 0 390 844" xmlns="http://www.w3.org/2000/svg" role="img" aria-label="Matchpoint app preview">
  <style>
    .ui { font-family: Inter, system-ui, -apple-system, "Segoe UI", Roboto, Arial, sans-serif; }
  </style>
  <defs>
    <clipPath id="screenClipMatchpoint">
      <rect x="13" y="10" width="364" height="824" rx="42" />
    </clipPath>
  </defs>
  <rect width="390" height="844" rx="52" fill="#080808" />
  <rect x="11" y="8" width="368" height="828" rx="44" fill="none" stroke="#3d3d3d" stroke-width="2" />
  <rect x="13" y="10" width="364" height="824" rx="42" fill="#101114" />
  <g clip-path="url(#screenClipMatchpoint)">
  <rect x="133" y="21" width="124" height="30" rx="15" fill="#050505" />

  <text class="ui" x="35" y="64" fill="#fff" font-size="20" font-weight="600">9:41</text>
  <rect x="300" y="51" width="6" height="12" rx="2" fill="#fff" />
  <rect x="309" y="54" width="6" height="9" rx="2" fill="#fff" />
  <rect x="318" y="57" width="6" height="6" rx="2" fill="#fff" opacity="0.6" />
  <path d="M330 55 Q337 48 344 55" stroke="#fff" stroke-width="2.4" fill="none" stroke-linecap="round" />
  <path d="M333 60 Q337 56 341 60" stroke="#fff" stroke-width="2.4" fill="none" stroke-linecap="round" />
  <circle cx="337" cy="64" r="2.2" fill="#fff" />
  <rect x="352" y="51" width="28" height="14" rx="3.5" fill="none" stroke="#fff" stroke-width="2" />
  <rect x="354.5" y="53.5" width="21" height="9" rx="2" fill="#fff" />

  <text class="ui" x="35" y="136" fill="#FACC15" font-size="40" font-weight="800">Matchpoint</text>
  <text class="ui" x="35" y="170" fill="#A3A3A3" font-size="21">Beach volleyball tournaments</text>

  <rect x="35" y="188" width="320" height="140" rx="16" fill="#222328" />
  <text class="ui" x="53" y="228" fill="#FACC15" font-size="21" font-weight="700">Summer Beach Cup</text>
  <text class="ui" x="53" y="260" fill="#E5E7EB" font-size="18">Jul 15, 2026</text>
  <text class="ui" x="53" y="288" fill="#C4C7CC" font-size="18">Barceloneta Beach</text>
  <text class="ui" x="53" y="316" fill="#FACC15" font-size="18" font-weight="600">8/16 teams</text>

  <rect x="35" y="344" width="320" height="140" rx="16" fill="#222328" />
  <text class="ui" x="53" y="384" fill="#FACC15" font-size="21" font-weight="700">Weekend Volley</text>
  <text class="ui" x="53" y="416" fill="#E5E7EB" font-size="18">Jul 22, 2026</text>
  <text class="ui" x="53" y="444" fill="#C4C7CC" font-size="18">Nova Icaria</text>
  <text class="ui" x="53" y="472" fill="#FACC15" font-size="18" font-weight="600">4/16 teams</text>

  <rect x="220" y="524" width="135" height="52" rx="26" fill="#FACC15" />
  <text class="ui" x="242" y="557" fill="#111" font-size="18" font-weight="700">+ Create</text>

  <rect x="13" y="756" width="364" height="78" fill="#17181d" />
  <rect x="13" y="756" width="364" height="1" fill="#2f3137" />
  <text class="ui" x="44" y="800" fill="#FACC15" font-size="14" font-weight="600">Tournaments</text>
  <text class="ui" x="158" y="800" fill="#7A7D84" font-size="14">My Entries</text>
  <text class="ui" x="276" y="800" fill="#7A7D84" font-size="14">Profile</text>
  <rect x="149" y="820" width="92" height="4" rx="2" fill="#F4F4F5" opacity="0.28" />
  </g>
</svg>
