<svg width="920" height="560" viewBox="0 0 920 560" xmlns="http://www.w3.org/2000/svg" role="img" aria-label="Proshop desktop browser preview">
  <style>
    .ui { font-family: Inter, system-ui, -apple-system, "Segoe UI", Roboto, Arial, sans-serif; }
  </style>
  <rect width="920" height="560" rx="22" fill="#0A0A0A" />
  <rect x="10" y="10" width="900" height="540" rx="16" fill="#111111" stroke="#2A2A2A" stroke-width="2" />

  <rect x="10" y="10" width="900" height="42" rx="16" fill="#1A1A1A" />
  <circle cx="32" cy="31" r="6" fill="#5C5C5C" />
  <circle cx="52" cy="31" r="6" fill="#5C5C5C" />
  <circle cx="72" cy="31" r="6" fill="#5C5C5C" />
  <rect x="98" y="20" width="520" height="22" rx="11" fill="#2A2A2A" />
  <text class="ui" x="120" y="35" fill="#A1A1AA" font-size="11">https://proshop.app</text>
  <rect x="742" y="20" width="148" height="22" rx="11" fill="#2A2A2A" />
  <text class="ui" x="773" y="35" fill="#F4F4F5" font-size="11">Sign in</text>

  <rect x="10" y="52" width="900" height="66" fill="#141414" />
  <text class="ui" x="36" y="92" fill="#FFFFFF" font-size="30" font-weight="800">PROSHOP</text>
  <text class="ui" x="212" y="92" fill="#A1A1AA" font-size="16">Tech products ecommerce</text>
  <text class="ui" x="706" y="92" fill="#FFFFFF" font-size="15">Cart (2)</text>

  <rect x="30" y="138" width="860" height="102" rx="14" fill="#1D1D1D" />
  <text class="ui" x="52" y="177" fill="#FFFFFF" font-size="28" font-weight="700">Latest Tech Deals</text>
  <text class="ui" x="52" y="206" fill="#A1A1AA" font-size="17">Laptops, headphones, monitors and accessories with fast delivery.</text>
  <rect x="730" y="168" width="138" height="44" rx="22" fill="#FFFFFF" />
  <text class="ui" x="765" y="196" fill="#111111" font-size="16" font-weight="700">Shop now</text>

  <rect x="30" y="262" width="272" height="266" rx="14" fill="#1E1E1E" />
  <rect x="48" y="280" width="236" height="126" rx="10" fill="#2A2A2A" />
  <text class="ui" x="48" y="436" fill="#F4F4F5" font-size="20" font-weight="700">MacBook Air M3</text>
  <text class="ui" x="48" y="460" fill="#A1A1AA" font-size="15">13-inch • 8GB • 256GB</text>
  <text class="ui" x="48" y="488" fill="#FFFFFF" font-size="20" font-weight="700">$1,199.00</text>
  <rect x="184" y="470" width="100" height="36" rx="18" fill="#FFFFFF" />
  <text class="ui" x="219" y="493" fill="#111111" font-size="14" font-weight="700">Add</text>

  <rect x="324" y="262" width="272" height="266" rx="14" fill="#1E1E1E" />
  <rect x="342" y="280" width="236" height="126" rx="10" fill="#2A2A2A" />
  <text class="ui" x="342" y="436" fill="#F4F4F5" font-size="20" font-weight="700">WH-1000XM5</text>
  <text class="ui" x="342" y="460" fill="#A1A1AA" font-size="15">Noise cancelling headset</text>
  <text class="ui" x="342" y="488" fill="#FFFFFF" font-size="20" font-weight="700">$349.00</text>
  <rect x="478" y="470" width="100" height="36" rx="18" fill="#FFFFFF" />
  <text class="ui" x="510" y="493" fill="#111111" font-size="14" font-weight="700">Add</text>

  <rect x="618" y="262" width="272" height="266" rx="14" fill="#1E1E1E" />
  <rect x="636" y="280" width="236" height="126" rx="10" fill="#2A2A2A" />
  <text class="ui" x="636" y="436" fill="#F4F4F5" font-size="20" font-weight="700">LG 34\" UltraWide</text>
  <text class="ui" x="636" y="460" fill="#A1A1AA" font-size="15">QHD • IPS • 160Hz</text>
  <text class="ui" x="636" y="488" fill="#FFFFFF" font-size="20" font-weight="700">$699.00</text>
  <rect x="772" y="470" width="100" height="36" rx="18" fill="#FFFFFF" />
  <text class="ui" x="804" y="493" fill="#111111" font-size="14" font-weight="700">Add</text>
</svg>
